<?xml version="1.0" standalone="no"?>
<!DOCTYPE svg PUBLIC "-//W3C//DTD SVG 20010904//EN"
 "http://www.w3.org/TR/2001/REC-SVG-20010904/DTD/svg10.dtd">
<svg version="1.0" xmlns="http://www.w3.org/2000/svg"
 width="700.000000pt" height="700.000000pt" viewBox="0 0 700.000000 700.000000"
 preserveAspectRatio="xMidYMid meet">
<metadata>
Created by potrace 1.11, written by Peter Selinger 2001-2013
</metadata>
<g transform="translate(0.000000,700.000000) scale(0.100000,-0.100000)"
fill="#000000" stroke="none">
<path d="M3068 6844 c-2 -1 -26 -5 -54 -7 -108 -12 -298 -59 -389 -97 -440
-182 -743 -485 -925 -925 -26 -63 -77 -253 -86 -320 -2 -16 -7 -57 -12 -91 -4
-33 -7 -124 -6 -201 l2 -141 -26 -7 c-44 -11 -181 -83 -272 -144 -103 -68
-267 -229 -336 -331 -53 -77 -124 -208 -124 -227 0 -6 -4 -13 -8 -15 -11 -4
-69 -186 -82 -258 -112 -589 174 -1165 716 -1440 88 -45 228 -93 319 -109 33
-6 72 -13 87 -16 24 -5 28 -1 37 32 6 21 12 52 15 68 3 17 15 76 27 133 12 56
19 105 16 108 -3 3 -23 8 -44 11 -149 18 -317 86 -443 178 -184 135 -314 328
-371 550 -32 123 -32 342 -1 457 95 351 343 605 687 703 107 30 132 47 163
106 24 45 25 92 4 204 -9 51 -9 296 1 355 14 90 18 106 43 187 60 202 158 359
323 523 196 195 462 324 731 356 65 7 274 7 310 0 13 -3 42 -8 65 -11 22 -3
81 -17 130 -32 434 -124 769 -472 880 -913 30 -119 81 -161 203 -166 189 -8
255 -19 401 -65 193 -62 357 -163 506 -313 228 -229 353 -522 360 -841 9 -400
-142 -727 -471 -1025 -95 -86 -289 -200 -364 -214 -14 -3 -38 -7 -55 -11 -16
-3 -59 -7 -95 -8 l-65 -2 -36 -178 -37 -178 120 2 c130 1 241 21 349 62 324
122 678 461 848 810 71 147 127 322 146 457 14 104 17 136 19 217 8 335 -90
657 -286 945 -93 138 -285 326 -428 421 -221 146 -475 240 -710 262 -36 4 -70
8 -76 10 -6 2 -21 32 -34 67 -30 83 -111 252 -121 256 -5 2 -9 8 -9 13 0 11
-82 135 -129 194 -57 71 -184 196 -266 260 -294 228 -633 343 -1012 342 -73 0
-134 -1 -135 -3z"/>
<path d="M3875 4655 c-123 -19 -238 -65 -341 -136 -69 -47 -179 -154 -229
-223 -25 -34 -49 -66 -54 -72 -21 -25 -99 -193 -124 -264 -23 -66 -49 -164
-63 -240 -4 -21 -22 -105 -61 -282 l-5 -28 -137 -1 c-75 -1 -163 -2 -196 -3
l-59 -1 -13 -55 c-7 -30 -15 -68 -18 -85 -4 -16 -13 -61 -21 -100 -8 -38 -16
-77 -18 -87 -3 -15 15 -16 186 -16 104 0 192 -3 195 -5 2 -3 -3 -38 -11 -79
-9 -40 -18 -82 -20 -93 -3 -11 -10 -42 -16 -70 -6 -27 -14 -61 -16 -75 -3 -14
-10 -45 -15 -70 -6 -25 -13 -56 -15 -70 -2 -14 -7 -38 -11 -55 -4 -16 -8 -34
-9 -40 -1 -5 -14 -66 -29 -134 -15 -67 -29 -135 -31 -149 -3 -14 -21 -98 -40
-186 -19 -89 -46 -215 -60 -281 -14 -66 -27 -129 -30 -140 -2 -11 -6 -31 -9
-45 -16 -84 -96 -445 -100 -448 -3 -4 -244 204 -445 384 -19 17 -96 86 -171
152 l-137 121 -72 -54 c-40 -30 -75 -56 -77 -58 -3 -4 30 -62 97 -167 14 -22
63 -102 109 -177 47 -76 88 -139 93 -141 4 -2 8 -7 8 -12 0 -8 104 -178 205
-335 17 -27 69 -111 115 -185 46 -74 98 -157 115 -185 18 -27 74 -118 126
-202 88 -142 95 -151 114 -139 11 7 160 100 330 206 171 106 330 205 355 221
66 42 617 387 742 463 l106 66 -41 74 c-28 48 -47 72 -57 70 -8 -2 -143 -36
-300 -75 -157 -39 -294 -72 -305 -75 -11 -2 -92 -22 -180 -44 -87 -21 -160
-38 -161 -37 -2 1 6 38 16 82 10 44 19 81 19 83 -1 8 113 547 141 672 10 47
21 96 24 110 4 25 19 101 21 110 1 3 5 16 8 30 4 14 9 36 11 50 2 14 14 70 26
125 12 55 24 111 27 125 2 14 18 86 34 160 16 74 32 146 34 160 3 22 13 67 65
308 7 28 17 52 23 53 14 1 541 7 728 8 l126 1 32 153 c18 83 35 162 38 175 l5
23 -425 -2 c-235 -2 -429 0 -432 3 -8 8 61 331 92 433 61 198 179 307 338 310
76 2 180 -22 247 -56 22 -11 41 -19 43 -17 1 2 9 19 18 38 9 19 54 116 100
216 l84 181 -56 28 c-185 91 -403 128 -586 100z"/>
</g>
</svg>
