<svg width="56" height="56" xmlns="http://www.w3.org/2000/svg"><g stroke-width="2" fill="none" fill-rule="evenodd"><path d="M38.02 46.599c-4.893 3.816-9.664 5.402-10.014 5.406-.426.003-7.91-2.639-13.222-8.283C10.718 39.4 10 34.056 10 30.052V17.036a2 2 0 012-2h32a2 2 0 012 2v13.016c0 2.696-.265 5.805-1.702 8.989M16 15c0-6.616 5.384-12 12-12s12 5.384 12 12" stroke="#79B8FF" stroke-linecap="round" stroke-linejoin="round"/><path d="M21 15c0-3.744 3.141-7 7-7 3.86 0 7 3.256 7 7M17.575 46.019l3.454-3.437M37.987 25.71l7.716-7.677M14.876 42.714l2.702-2.688m18.07-17.978l6.897-6.863" stroke="#79B8FF" stroke-linecap="round" stroke-linejoin="round"/><path d="M15.7 19c.316 1.122.572 1.372 1.71 1.678-1.136.314-1.39.566-1.7 1.69-.317-1.121-.573-1.372-1.71-1.679 1.135-.313 1.389-.566 1.7-1.689zm25 22c.316 1.122.572 1.372 1.71 1.678-1.136.314-1.39.566-1.7 1.69-.317-1.121-.573-1.372-1.71-1.679 1.135-.313 1.389-.566 1.7-1.689z" stroke="#2088FF" stroke-linecap="round" stroke-linejoin="round"/><path d="M30.231 29.005a3 3 0 10-4.428.038" stroke="#2088FF"/><path stroke="#2088FF" stroke-linecap="round" stroke-linejoin="round" d="M23.994 22.089v.98l1.564 1.527M21 27v1.981l1.565 1.526M35.001 27v1.981l-1.564 1.526M21 39.507v-1.981L22.565 36M35.001 39.508v-1.981L33.437 36M31.994 22.089v.98l-1.565 1.527"/><path stroke="#2088FF" stroke-linecap="round" d="M28 29.043v7.487M19.986 33.044H23M32.986 33.044H36"/><path d="M33 31v2.468c0 1.194-.163 2.66-1.32 4.067C30.073 39.295 28.12 40 28.002 40c-.119.001-2.197-.785-3.673-2.465C23.199 36.25 23 34.66 23 33.468V31a2 2 0 012-2h6a2 2 0 012 2z" stroke="#2088FF" stroke-linecap="round" stroke-linejoin="round"/></g></svg>