<svg width="56" height="56" xmlns="http://www.w3.org/2000/svg"><g stroke-linecap="round" stroke-width="2" fill="none" fill-rule="evenodd"><g stroke="#2088FF"><path d="M20 24l-3.397 3.398a.85.85 0 000 1.203L20.002 32M37.015 24l3.399 3.398a.85.85 0 010 1.203L37.014 32" stroke-linejoin="round"/><path d="M31.029 21.044L25.976 35.06"/></g><path stroke="#79B8FF" stroke-linejoin="round" d="M23.018 10h8.984M26 47h5M8 16h16m9 0h15.725M8 41h13"/><path d="M5.027 34.998c.673 2.157 1.726 4.396 2.81 6.02m43.38-19.095C50.7 19.921 49.866 17.796 48.79 16" stroke="#79B8FF"/><path stroke="#2088FF" stroke-linejoin="round" d="M26 41h17"/><path d="M7.183 16C5.186 19.582 4 23.619 4 28M42.608 47.02c2.647-1.87 5.642-5.448 7.295-9.18C51.52 34.191 52.071 30.323 52 28" stroke="#2088FF"/><path stroke="#2088FF" stroke-linejoin="round" d="M7.226 16H28M13.343 47H21"/><path d="M13.337 47.01a24.364 24.364 0 006.19 3.45 24.527 24.527 0 007.217 1.505c2.145.108 4.672-.05 7.295-.738" stroke="#2088FF"/><path stroke="#2088FF" stroke-linejoin="round" d="M36 47h6.647M12 10h6M37 10h6.858"/><path d="M43.852 10c-4.003-3.667-9.984-6.054-16.047-6-2.367.021-4.658.347-6.81 1.045" stroke="#2088FF"/><path stroke="#79B8FF" stroke-linejoin="round" d="M5.041 35h4.962M47 22h4.191"/></g></svg>