<svg width="256" height="256" viewBox="0 0 256 256" fill="none" xmlns="http://www.w3.org/2000/svg">
<path d="M109.614 131.317L112.2 119.3C114.2 108.8 118.4 100.6 124.7 94.4999C131 88.3999 138.2 85.3999 146.3 85.3999C152.8 85.3999 159.1 87.0999 165.2 90.3999L157.7 106.6C154.6 104.6 151.1 103.6 147.3 103.6C140.5 103.6 136 108.6 133.9 118.6L132.6 124.5L131.184 131.092C142.017 130.998 154.87 130.9 162.8 130.9L160.1 143.7C152.38 143.85 138.987 143.944 128.424 143.981L112.309 219.862L147.573 211.109L150.577 216.514L93.8184 251.914L58.4185 195.156L64.051 190.98L91.6805 215.374L106.896 144H92.6L95.3 131.4C97.9977 131.4 104.101 131.366 109.614 131.317Z" fill="black"/>
<path d="M107.843 19.521C119.855 16.9665 132.395 19.251 142.7 25.863C153.003 32.4737 160.222 42.8629 162.789 54.7339C163.435 57.7254 166.081 59.8605 169.142 59.8605L170.203 59.8605C181.689 59.849 192.76 64.0712 201.269 71.6939C209.777 79.3154 215.116 89.7904 216.266 101.081C217.416 112.371 214.297 123.687 207.502 132.835C203.979 137.579 199.508 142.097 194.69 145.376C189.831 148.684 185.043 150.454 180.747 150.454C180.725 150.454 180.704 150.454 180.682 150.454L177.953 150.481L175.272 163.508L180.781 163.454C188.535 163.444 195.841 160.319 202.005 156.123C208.219 151.893 213.703 146.289 217.939 140.586C226.662 128.841 230.679 114.292 229.199 99.7636C227.72 85.2356 220.851 71.7825 209.943 62.0109C200.029 53.1295 187.419 47.8636 174.182 46.99C170.091 33.8245 161.454 22.4502 149.72 14.9214C136.527 6.45649 120.492 3.54034 105.139 6.80541C89.785 10.0707 76.3525 19.255 67.8071 32.3573C60.3758 43.7516 57.1742 57.2923 58.6354 70.6715C49.4015 73.9877 41.3372 80.0208 35.568 88.0424C28.5954 97.7375 25.4696 109.652 26.7999 121.501C28.1302 133.351 33.8205 144.285 42.7653 152.215C50.2819 158.879 59.6532 163.028 69.5625 164.175L72.1971 151.375C64.4936 150.731 57.183 147.624 51.3892 142.487C44.8385 136.68 40.6885 128.689 39.7188 120.051C38.7491 111.414 41.0254 102.719 46.122 95.6328C51.2197 88.5447 58.7843 83.5596 67.3748 81.6482C70.8641 80.8719 73.0717 77.4238 72.3164 73.9299C69.7503 62.06 72.0417 49.6618 78.696 39.459C85.3515 29.2543 95.832 22.0754 107.843 19.521Z" fill="black"/>
</svg>
