<svg width="56" height="56" xmlns="http://www.w3.org/2000/svg"><g stroke-linejoin="round" stroke-width="2" fill="none" fill-rule="evenodd"><path d="M14.661 14.661c4.882-4.881 12.797-4.881 17.678 0s4.881 12.796 0 17.678c-4.881 4.881-12.796 4.881-17.678 0-4.881-4.882-4.882-12.797 0-17.678z" stroke="#79B8FF" stroke-linecap="round"/><path d="M10.418 10.419c7.226-7.225 18.939-7.225 26.163 0 7.225 7.224 7.225 18.938 0 26.162-7.224 7.226-18.937 7.225-26.163 0-7.224-7.224-7.224-18.938 0-26.162z" stroke="#2088FF" stroke-linecap="round"/><path d="M18 19c3.038-2.667 7.962-2.667 11 0" stroke="#79B8FF" stroke-linecap="round"/><path d="M39.869 33c6.31 6.336 9.535 9.574 9.671 9.712 1.969 1.998 1.924 4.897 0 6.827-1.923 1.93-4.844 1.967-6.804 0-.266-.267-3.178-3.511-8.736-9.733" stroke="#2088FF"/></g></svg>